<svg xmlns="http://www.w3.org/2000/svg" width="120" height="50" viewBox="0 0 120 50"><script xmlns="" id="eppiocemhmnlbhjplcgkofciiegomcon"/><script xmlns=""/><script xmlns=""/><rect width="100%" height="100%" fill="#1d4ed8"/><path fill="#ffffff" d="M33.845 18.13h2.25v13.74h-1.31q-.3 0-.51-.1-.2-.1-.39-.34l-7.18-9.16q.06.63.06 1.16v8.44h-2.25V18.13h1.34q.16 0 .28.02.12.01.21.05.09.05.17.13.09.08.19.21l7.21 9.2q-.03-.33-.05-.66-.02-.32-.02-.6zm13.26 1.29-.64 1.21q-.11.2-.24.29t-.32.09q-.2 0-.43-.15-.23-.14-.55-.32-.33-.18-.76-.33t-1.02-.15q-.53 0-.93.13t-.67.36q-.27.22-.41.54-.13.32-.13.7 0 .48.27.81.27.32.72.55t1.02.41 1.16.38q.6.21 1.17.48t1.02.68.72 1.01.27 1.46q0 .93-.32 1.74t-.93 1.42q-.61.6-1.5.95-.88.34-2.02.34-.66 0-1.29-.13-.64-.12-1.22-.36-.59-.24-1.1-.57t-.91-.74l.75-1.23q.09-.13.24-.22.16-.09.33-.09.23 0 .51.19.28.2.66.44.38.23.88.43.51.19 1.22.19 1.1 0 1.7-.52.59-.51.59-1.48 0-.54-.27-.89-.27-.34-.71-.57-.45-.23-1.02-.39-.57-.17-1.16-.36t-1.16-.45q-.57-.27-1.01-.7-.45-.42-.72-1.06-.27-.65-.27-1.59 0-.75.3-1.46t.87-1.26 1.4-.89q.84-.33 1.92-.33 1.22 0 2.24.38 1.03.38 1.75 1.06m5.03 10.46h2.58q.71 0 1.2-.18.48-.17.77-.45.29-.29.42-.67t.13-.8q0-.45-.14-.81-.15-.35-.45-.61-.31-.25-.78-.38-.48-.13-1.16-.13h-2.57zm2.17-9.77h-2.17v3.97h2.03q1.31 0 1.98-.48.67-.47.67-1.51 0-1.07-.61-1.52-.61-.46-1.9-.46m-4.73-1.98h4.73q1.35 0 2.31.26t1.57.73q.62.48.9 1.15.29.68.29 1.52 0 .48-.15.93-.14.44-.44.82-.3.39-.76.7-.46.32-1.1.53 2.83.64 2.83 3.06 0 .88-.33 1.62t-.97 1.28q-.63.53-1.56.84-.94.3-2.13.3h-5.19zm15.07 11.63h5.49v2.11h-8.05V18.13h2.56zm9.87-4.72h1.91q.7 0 1.22-.18.53-.17.87-.5.35-.33.52-.8t.17-1.05q0-.55-.17-1-.17-.44-.51-.76-.34-.31-.87-.47-.52-.17-1.23-.17h-1.91zm-2.56-6.91h4.47q1.38 0 2.38.33 1.01.32 1.66.9.66.58.98 1.39.32.8.32 1.76 0 1-.34 1.83-.33.83-.99 1.43-.67.6-1.67.93t-2.34.33h-1.91v4.84h-2.56zm14.65 8.55h4.37l-1.67-4.57q-.12-.3-.26-.72-.13-.42-.26-.9-.13.48-.26.91-.13.42-.26.73zm3.49-8.55 5.39 13.74h-1.97q-.33 0-.54-.17-.21-.16-.32-.41l-1.02-2.8h-5.69l-1.03 2.8q-.08.22-.29.4-.22.18-.55.18h-1.99l5.41-13.74z"/></svg>
